<?xml version="1.0" encoding="UTF-8" standalone="no"?>
<!DOCTYPE svg PUBLIC "-//W3C//DTD SVG 1.1//EN"
 "http://www.w3.org/Graphics/SVG/1.1/DTD/svg11.dtd">
<!-- Generated by graphviz version 2.40.1 (20161225.0304)
 -->
<!-- Title: G Pages: 1 -->
<svg width="145pt" height="184pt"
 viewBox="0.00 0.00 144.61 184.00" xmlns="http://www.w3.org/2000/svg" xmlns:xlink="http://www.w3.org/1999/xlink">
<g id="graph0" class="graph" transform="scale(1 1) rotate(0) translate(4 180)">
<title>G</title>
<polygon fill="#ffffff" stroke="transparent" points="-4,4 -4,-180 140.6118,-180 140.6118,4 -4,4"/>
<g id="clust1" class="cluster">
<title>cluster_Global</title>
<path fill="none" stroke="#c0c0c0" d="M20,-8C20,-8 116.6118,-8 116.6118,-8 122.6118,-8 128.6118,-14 128.6118,-20 128.6118,-20 128.6118,-156 128.6118,-156 128.6118,-162 122.6118,-168 116.6118,-168 116.6118,-168 20,-168 20,-168 14,-168 8,-162 8,-156 8,-156 8,-20 8,-20 8,-14 14,-8 20,-8"/>
<text text-anchor="middle" x="68.3059" y="-155.2" font-family="Times,serif" font-size="11.00" fill="#c0c0c0">Global</text>
</g>
<g id="clust2" class="cluster">
<title>cluster_\EasyMath</title>
<path fill="none" stroke="#c0c0c0" d="M28,-16C28,-16 108.6118,-16 108.6118,-16 114.6118,-16 120.6118,-22 120.6118,-28 120.6118,-28 120.6118,-129 120.6118,-129 120.6118,-135 114.6118,-141 108.6118,-141 108.6118,-141 28,-141 28,-141 22,-141 16,-135 16,-129 16,-129 16,-28 16,-28 16,-22 22,-16 28,-16"/>
<text text-anchor="middle" x="68.3059" y="-128.2" font-family="Times,serif" font-size="11.00" fill="#c0c0c0">EasyMath</text>
</g>
<!-- \\EasyMath\\Subtraction -->
<g id="node1" class="node">
<title>\\EasyMath\\Subtraction</title>
<polygon fill="none" stroke="#000000" points="112.4186,-114 24.1932,-114 24.1932,-78 112.4186,-78 112.4186,-114"/>
<text text-anchor="middle" x="68.3059" y="-92.7" font-family="Courier,monospace" font-size="11.00" fill="#000000">Subtraction</text>
</g>
<!-- \\EasyMath\\Addition -->
<g id="node2" class="node">
<title>\\EasyMath\\Addition</title>
<polygon fill="none" stroke="#000000" points="102.6148,-60 33.997,-60 33.997,-24 102.6148,-24 102.6148,-60"/>
<text text-anchor="middle" x="68.3059" y="-38.7" font-family="Courier,monospace" font-size="11.00" fill="#000000">Addition</text>
</g>
</g>
</svg>
